<?xml version="1.0" encoding="UTF-8"?>
<!DOCTYPE svg PUBLIC "-//W3C//DTD SVG 1.1//EN" "http://www.w3.org/Graphics/SVG/1.1/DTD/svg11.dtd">
<!-- Creator: CorelDRAW 2021 (64-Bit Evaluation Version) -->
<svg xmlns="http://www.w3.org/2000/svg" xml:space="preserve" width="3.27136in" height="0.821598in" version="1.1" style="shape-rendering:geometricPrecision; text-rendering:geometricPrecision; image-rendering:optimizeQuality; fill-rule:evenodd; clip-rule:evenodd"
viewBox="0 0 3335.19 837.63"
 xmlns:xlink="http://www.w3.org/1999/xlink"
 xmlns:xodm="http://www.corel.com/coreldraw/odm/2003">
 <defs>
  <style type="text/css">
   <![CDATA[
    .fil1 {fill:#18A8A1}
    .fil0 {fill:white;fill-rule:nonzero}
   ]]>
  </style>
 </defs>
 <g id="Layer_x0020_1">
  <metadata id="CorelCorpID_0Corel-Layer"/>
  <path class="fil0" d="M1193.39 275.46c28.04,0 53.07,6.01 75.1,18.02 22.03,12.02 39.39,29.82 52.07,53.41 12.68,23.59 19.03,52.07 19.03,85.45l0 216.97 -75.44 0 0 -205.62c0,-32.93 -8.23,-58.19 -24.7,-75.77 -16.46,-17.58 -38.94,-26.37 -67.42,-26.37 -28.49,0 -51.07,8.79 -67.76,26.37 -16.69,17.58 -25.03,42.84 -25.03,75.77l0 205.62 -76.11 0 0 -494.01 76.11 0 0 168.9c12.9,-15.58 29.26,-27.59 49.07,-36.05 19.8,-8.46 41.5,-12.68 65.09,-12.68z"/>
  <path id="_1" class="fil0" d="M1362.65 463.71c0,-36.94 7.68,-69.65 23.03,-98.13 15.35,-28.48 36.27,-50.63 62.75,-66.42 26.48,-15.8 55.74,-23.7 87.79,-23.7 28.93,0 54.18,5.67 75.77,17.02 21.59,11.35 38.83,25.48 51.74,42.39l0 -53.4 76.77 0 0 367.84 -76.77 0 0 -54.74c-12.9,17.36 -30.49,31.82 -52.74,43.39 -22.25,11.57 -47.62,17.36 -76.11,17.36 -31.6,0 -60.53,-8.12 -86.79,-24.37 -26.26,-16.24 -47.07,-38.94 -62.42,-68.09 -15.35,-29.15 -23.03,-62.19 -23.03,-99.14zm301.08 1.34c0,-25.37 -5.23,-47.4 -15.69,-66.09 -10.46,-18.69 -24.15,-32.93 -41.06,-42.72 -16.91,-9.79 -35.16,-14.69 -54.74,-14.69 -19.58,0 -37.83,4.78 -54.74,14.35 -16.91,9.57 -30.6,23.59 -41.06,42.06 -10.46,18.47 -15.69,40.39 -15.69,65.75 0,25.37 5.23,47.62 15.69,66.76 10.46,19.14 24.26,33.71 41.39,43.73 17.14,10.01 35.27,15.02 54.41,15.02 19.58,0 37.83,-4.9 54.74,-14.69 16.91,-9.79 30.6,-24.14 41.06,-43.06 10.46,-18.91 15.69,-41.06 15.69,-66.42z"/>
  <path id="_2" class="fil0" d="M1831 232.73c-13.8,0 -25.37,-4.67 -34.72,-14.02 -9.34,-9.34 -14.02,-20.92 -14.02,-34.71 0,-13.8 4.68,-25.37 14.02,-34.72 9.35,-9.35 20.92,-14.02 34.72,-14.02 13.35,0 24.7,4.67 34.05,14.02 9.35,9.34 14.02,20.92 14.02,34.72 0,13.8 -4.67,25.37 -14.02,34.71 -9.34,9.35 -20.7,14.02 -34.05,14.02zm37.38 48.74l0 367.84 -76.11 0 0 -367.84 76.11 0z"/>
  <path id="_3" class="fil0" d="M1996.25 334.87c11.13,-18.69 25.93,-33.27 44.39,-43.73 18.47,-10.46 40.39,-15.69 65.76,-15.69l0 78.78 -19.36 0c-29.82,0 -52.41,7.57 -67.76,22.7 -15.35,15.13 -23.03,41.39 -23.03,78.78l0 193.6 -76.11 0 0 -367.84 76.11 0 0 53.4z"/>
  <path id="_4" class="fil0" d="M2261.65 655.31c-28.93,0 -54.86,-5.23 -77.78,-15.69 -22.92,-10.46 -41.06,-24.7 -54.41,-42.72 -13.35,-18.03 -20.47,-38.16 -21.37,-60.42l78.78 0c1.34,15.57 8.79,28.59 22.37,39.05 13.57,10.46 30.6,15.69 51.07,15.69 21.36,0 37.94,-4.12 49.74,-12.35 11.79,-8.23 17.69,-18.8 17.69,-31.71 0,-13.8 -6.56,-24.03 -19.69,-30.71 -13.13,-6.67 -33.94,-14.02 -62.42,-22.03 -27.6,-7.57 -50.07,-14.91 -67.43,-22.03 -17.36,-7.12 -32.38,-18.03 -45.06,-32.71 -12.69,-14.69 -19.03,-34.05 -19.03,-58.08 0,-19.58 5.79,-37.5 17.36,-53.74 11.57,-16.24 28.15,-29.04 49.74,-38.39 21.58,-9.34 46.4,-14.02 74.44,-14.02 41.83,0 75.55,10.57 101.14,31.71 25.59,21.14 39.28,49.96 41.06,86.45l-76.1 0c-1.34,-16.47 -8.01,-29.6 -20.03,-39.39 -12.02,-9.79 -28.26,-14.69 -48.74,-14.69 -20.02,0 -35.38,3.78 -46.06,11.35 -10.68,7.57 -16.02,17.58 -16.02,30.04 0,9.79 3.56,18.02 10.68,24.7 7.12,6.68 15.8,11.91 26.03,15.69 10.24,3.79 25.37,8.57 45.4,14.35 26.7,7.12 48.62,14.35 65.76,21.69 17.14,7.35 31.93,18.14 44.39,32.38 12.46,14.24 18.92,33.16 19.36,56.74 0,20.92 -5.78,39.61 -17.36,56.08 -11.57,16.47 -27.93,29.38 -49.07,38.72 -21.14,9.35 -45.95,14.02 -74.43,14.02z"/>
  <path id="_5" class="fil0" d="M2410.89 463.71c0,-36.94 7.68,-69.65 23.03,-98.13 15.35,-28.48 36.27,-50.63 62.75,-66.42 26.48,-15.8 55.74,-23.7 87.79,-23.7 28.93,0 54.18,5.67 75.77,17.02 21.59,11.35 38.83,25.48 51.74,42.39l0 -53.4 76.77 0 0 367.84 -76.77 0 0 -54.74c-12.9,17.36 -30.49,31.82 -52.74,43.39 -22.25,11.57 -47.62,17.36 -76.11,17.36 -31.6,0 -60.53,-8.12 -86.79,-24.37 -26.26,-16.24 -47.07,-38.94 -62.42,-68.09 -15.35,-29.15 -23.03,-62.19 -23.03,-99.14zm301.08 1.34c0,-25.37 -5.23,-47.4 -15.69,-66.09 -10.46,-18.69 -24.15,-32.93 -41.06,-42.72 -16.91,-9.79 -35.16,-14.69 -54.74,-14.69 -19.58,0 -37.83,4.78 -54.74,14.35 -16.91,9.57 -30.6,23.59 -41.06,42.06 -10.46,18.47 -15.69,40.39 -15.69,65.75 0,25.37 5.23,47.62 15.69,66.76 10.46,19.14 24.26,33.71 41.39,43.73 17.14,10.01 35.27,15.02 54.41,15.02 19.58,0 37.83,-4.9 54.74,-14.69 16.91,-9.79 30.6,-24.14 41.06,-43.06 10.46,-18.91 15.69,-41.06 15.69,-66.42z"/>
  <path id="_6" class="fil0" d="M2916.61 335.54c12.9,-16.91 30.49,-31.16 52.74,-42.73 22.25,-11.57 47.4,-17.36 75.44,-17.36 32.04,0 61.31,7.9 87.79,23.7 26.48,15.8 47.29,37.94 62.42,66.42 15.13,28.49 22.7,61.19 22.7,98.13 0,36.94 -7.57,69.99 -22.7,99.14 -15.13,29.15 -35.94,51.85 -62.42,68.09 -26.48,16.24 -55.74,24.37 -87.79,24.37 -28.04,0 -52.96,-5.68 -74.77,-17.02 -21.81,-11.35 -39.61,-25.48 -53.41,-42.39l0 228.31 -76.11 0 0 -542.75 76.11 0 0 54.07zm223.64 128.17c0,-25.37 -5.23,-47.29 -15.69,-65.75 -10.46,-18.47 -24.26,-32.49 -41.39,-42.06 -17.14,-9.56 -35.49,-14.35 -55.07,-14.35 -19.14,0 -37.28,4.89 -54.41,14.69 -17.14,9.79 -30.93,24.03 -41.39,42.72 -10.46,18.69 -15.69,40.72 -15.69,66.09 0,25.37 5.23,47.51 15.69,66.42 10.46,18.92 24.26,33.27 41.39,43.06 17.14,9.79 35.27,14.69 54.41,14.69 19.58,0 37.94,-5.01 55.07,-15.02 17.14,-10.01 30.93,-24.59 41.39,-43.73 10.46,-19.14 15.69,-41.39 15.69,-66.76z"/>
  <path class="fil1" d="M309.62 0l218.39 0c170.29,0 309.62,139.33 309.62,309.62l0 218.39c0,170.29 -139.33,309.62 -309.62,309.62l-218.39 0c-170.29,0 -309.62,-139.33 -309.62,-309.62l0 -218.39c0,-170.29 139.33,-309.62 309.62,-309.62zm391 639.97c-203.96,-122.87 86.81,-370.48 -247.35,-442.32 241.75,142.24 -70.37,353.59 247.35,442.32zm-415.88 -254.18c16.32,-76.79 16.84,-148.21 -147.72,-180.15 58.61,32.62 78.95,69.39 82.47,107.29 0.04,0.46 0.6,0.95 0.77,1.38l0.24 0.56 -1.05 -1.58c56.51,136.45 207.32,210.3 306.98,176.16l-27.06 -84.11c0,0 -111.12,58.66 -214.64,-19.55zm63.46 252.88c-85.73,-53.39 -87.45,-106.68 -81.51,-182.55 -16.21,-8.64 -57.25,-39 -67.84,-84.72 -5.09,52.22 -60.38,206.73 149.35,267.28z"/>
  <path class="fil0" d="M3269.57 177.71c11.26,0 22.05,2.81 32.37,8.45 10.35,5.62 18.48,13.69 24.39,24.18 5.9,10.5 8.86,21.49 8.86,32.99 0,11.43 -2.89,22.31 -8.69,32.69 -5.82,10.35 -13.89,18.42 -24.24,24.24 -10.38,5.79 -21.26,8.69 -32.69,8.69 -11.43,0 -22.31,-2.89 -32.69,-8.69 -10.35,-5.82 -18.42,-13.89 -24.24,-24.24 -5.79,-10.38 -8.69,-21.26 -8.69,-32.69 0,-11.49 2.95,-22.49 8.86,-32.99 5.9,-10.5 14.03,-18.57 24.38,-24.18 10.32,-5.64 21.11,-8.45 32.37,-8.45zm0.06 12.98c-9.04,0 -17.69,2.25 -25.97,6.75 -8.27,4.5 -14.79,10.97 -19.56,19.42 -4.77,8.42 -7.16,17.28 -7.16,26.49 0,9.18 2.34,17.95 6.99,26.26 4.65,8.34 11.14,14.83 19.48,19.5 8.33,4.68 17.07,7.02 26.23,7.02 9.18,0 17.92,-2.34 26.23,-7.02 8.34,-4.68 14.83,-11.17 19.51,-19.5 4.68,-8.3 7.02,-17.07 7.02,-26.26 0,-9.21 -2.4,-18.07 -7.16,-26.49 -4.76,-8.45 -11.29,-14.92 -19.59,-19.42 -8.33,-4.5 -16.99,-6.75 -25.99,-6.75zm-29.71 87.72l0 -69.48 14.09 0c13.22,0 20.65,0.06 22.22,0.17 4.68,0.38 8.3,1.32 10.91,2.78 2.58,1.43 4.74,3.66 6.49,6.67 1.73,2.98 2.6,6.32 2.6,9.94 0,5.03 -1.64,9.3 -4.91,12.87 -3.28,3.57 -7.86,5.76 -13.77,6.64 2.1,0.79 3.74,1.67 4.88,2.6 1.14,0.94 2.72,2.72 4.7,5.32 0.53,0.7 2.22,3.51 5.15,8.48l8.16 14.01 -17.54 0 -5.76 -11.31c-3.89,-7.57 -7.1,-12.37 -9.65,-14.33 -2.57,-1.96 -5.79,-2.95 -9.71,-2.95l-3.65 0 0 28.6 -14.21 0zm14.21 -39.65l5.7 0c8.13,0 13.19,-0.32 15.15,-0.94 1.96,-0.61 3.51,-1.69 4.65,-3.24 1.14,-1.55 1.7,-3.31 1.7,-5.29 0,-1.9 -0.56,-3.62 -1.67,-5.12 -1.11,-1.49 -2.69,-2.57 -4.74,-3.22 -2.05,-0.65 -7.08,-0.97 -15.09,-0.97l-5.7 0 0 18.77z"/>
 </g>
</svg>
