<?xml version="1.0" encoding="UTF-8"?>
<!DOCTYPE svg PUBLIC "-//W3C//DTD SVG 1.1//EN" "http://www.w3.org/Graphics/SVG/1.1/DTD/svg11.dtd">
<!-- Creator: CorelDRAW 2021 (64-Bit Evaluation Version) -->
<svg xmlns="http://www.w3.org/2000/svg" xml:space="preserve" width="2.94113in" height="0.744417in" version="1.1" style="shape-rendering:geometricPrecision; text-rendering:geometricPrecision; image-rendering:optimizeQuality; fill-rule:evenodd; clip-rule:evenodd"
viewBox="0 0 678.02 171.61"
 xmlns:xlink="http://www.w3.org/1999/xlink"
 xmlns:xodm="http://www.corel.com/coreldraw/odm/2003">
 <defs>
  <style type="text/css">
   <![CDATA[
    .fil1 {fill:#18A8A1}
    .fil2 {fill:white}
    .fil0 {fill:black;fill-rule:nonzero}
    .fil3 {fill:white;fill-rule:nonzero}
   ]]>
  </style>
 </defs>
 <g id="Layer_x0020_1">
  <metadata id="CorelCorpID_0Corel-Layer"/>
  <path class="fil0" d="M239.22 52.67c5.75,0 10.87,1.23 15.39,3.69 4.51,2.46 8.07,6.11 10.67,10.94 2.6,4.83 3.9,10.67 3.9,17.51l0 44.45 -15.45 0 0 -42.13c0,-6.75 -1.69,-11.92 -5.06,-15.52 -3.37,-3.6 -7.98,-5.4 -13.81,-5.4 -5.83,0 -10.46,1.8 -13.88,5.4 -3.42,3.6 -5.13,8.78 -5.13,15.52l0 42.13 -15.59 0 0 -101.21 15.59 0 0 34.61c2.64,-3.19 5.99,-5.65 10.05,-7.39 4.06,-1.73 8.5,-2.6 13.34,-2.6l-0 0z"/>
  <path id="_1" class="fil0" d="M273.9 91.24c0,-7.57 1.57,-14.27 4.72,-20.1 3.15,-5.83 7.43,-10.37 12.86,-13.61 5.43,-3.24 11.42,-4.85 17.99,-4.85 5.93,0 11.1,1.16 15.52,3.49 4.42,2.33 7.96,5.22 10.6,8.69l0 -10.94 15.73 0 0 75.36 -15.73 0 0 -11.22c-2.64,3.56 -6.25,6.52 -10.81,8.89 -4.56,2.37 -9.76,3.56 -15.59,3.56 -6.47,0 -12.4,-1.66 -17.78,-4.99 -5.38,-3.33 -9.64,-7.98 -12.79,-13.95 -3.15,-5.97 -4.72,-12.74 -4.72,-20.31l-0 -0zm61.69 0.27c0,-5.2 -1.07,-9.71 -3.21,-13.54 -2.14,-3.83 -4.95,-6.75 -8.41,-8.75 -3.47,-2.01 -7.2,-3.01 -11.22,-3.01 -4.01,0 -7.75,0.98 -11.22,2.94 -3.47,1.96 -6.27,4.83 -8.41,8.62 -2.14,3.78 -3.21,8.27 -3.21,13.47 0,5.2 1.07,9.76 3.21,13.68 2.14,3.92 4.97,6.91 8.48,8.96 3.51,2.05 7.23,3.08 11.15,3.08 4.01,0 7.75,-1 11.22,-3.01 3.47,-2.01 6.27,-4.95 8.41,-8.82 2.14,-3.88 3.21,-8.41 3.21,-13.61l0 -0z"/>
  <path id="_2" class="fil0" d="M369.85 43.92c-2.83,0 -5.2,-0.96 -7.11,-2.87 -1.91,-1.91 -2.87,-4.29 -2.87,-7.11 0,-2.83 0.96,-5.2 2.87,-7.11 1.92,-1.92 4.29,-2.87 7.11,-2.87 2.74,0 5.06,0.96 6.98,2.87 1.92,1.92 2.87,4.29 2.87,7.11 0,2.83 -0.96,5.2 -2.87,7.11 -1.92,1.92 -4.24,2.87 -6.98,2.87zm7.66 9.98l0 75.36 -15.59 0 0 -75.36 15.59 0z"/>
  <path id="_3" class="fil0" d="M403.7 64.85c2.28,-3.83 5.31,-6.82 9.09,-8.96 3.78,-2.14 8.27,-3.21 13.47,-3.21l0 16.14 -3.97 0c-6.11,0 -10.74,1.55 -13.88,4.65 -3.15,3.1 -4.72,8.48 -4.72,16.14l0 39.67 -15.59 0 0 -75.36 15.59 0 0 10.94 0 0z"/>
  <path id="_4" class="fil0" d="M458.08 130.5c-5.93,0 -11.24,-1.07 -15.93,-3.21 -4.7,-2.14 -8.41,-5.06 -11.15,-8.75 -2.74,-3.69 -4.2,-7.82 -4.38,-12.38l16.14 0c0.27,3.19 1.8,5.86 4.58,8 2.78,2.14 6.27,3.21 10.46,3.21 4.38,0 7.77,-0.84 10.19,-2.53 2.42,-1.69 3.62,-3.85 3.62,-6.5 0,-2.83 -1.34,-4.92 -4.03,-6.29 -2.69,-1.37 -6.95,-2.87 -12.79,-4.51 -5.65,-1.55 -10.26,-3.05 -13.81,-4.51 -3.56,-1.46 -6.63,-3.69 -9.23,-6.7 -2.6,-3.01 -3.9,-6.98 -3.9,-11.9 0,-4.01 1.19,-7.68 3.56,-11.01 2.37,-3.33 5.77,-5.95 10.19,-7.86 4.42,-1.91 9.5,-2.87 15.25,-2.87 8.57,0 15.48,2.16 20.72,6.5 5.24,4.33 8.05,10.24 8.41,17.71l-15.59 0c-0.27,-3.37 -1.64,-6.06 -4.1,-8.07 -2.46,-2.01 -5.79,-3.01 -9.98,-3.01 -4.1,0 -7.25,0.77 -9.44,2.32 -2.19,1.55 -3.28,3.6 -3.28,6.16 0,2.01 0.73,3.69 2.19,5.06 1.46,1.37 3.24,2.44 5.33,3.21 2.1,0.77 5.2,1.75 9.3,2.94 5.47,1.46 9.96,2.94 13.47,4.44 3.51,1.5 6.54,3.72 9.1,6.63 2.55,2.92 3.88,6.79 3.97,11.63 0,4.29 -1.19,8.11 -3.56,11.49 -2.37,3.37 -5.72,6.02 -10.05,7.93 -4.33,1.91 -9.41,2.87 -15.25,2.87l-0 0z"/>
  <path id="_5" class="fil0" d="M488.65 91.24c0,-7.57 1.57,-14.27 4.72,-20.1 3.15,-5.83 7.43,-10.37 12.86,-13.61 5.43,-3.24 11.42,-4.85 17.99,-4.85 5.93,0 11.1,1.16 15.52,3.49 4.42,2.33 7.96,5.22 10.6,8.69l0 -10.94 15.73 0 0 75.36 -15.73 0 0 -11.22c-2.64,3.56 -6.25,6.52 -10.81,8.89 -4.56,2.37 -9.76,3.56 -15.59,3.56 -6.47,0 -12.4,-1.66 -17.78,-4.99 -5.38,-3.33 -9.64,-7.98 -12.79,-13.95 -3.15,-5.97 -4.72,-12.74 -4.72,-20.31l-0 -0zm61.69 0.27c0,-5.2 -1.07,-9.71 -3.21,-13.54 -2.14,-3.83 -4.95,-6.75 -8.41,-8.75 -3.47,-2.01 -7.2,-3.01 -11.22,-3.01 -4.01,0 -7.75,0.98 -11.22,2.94 -3.47,1.96 -6.27,4.83 -8.41,8.62 -2.14,3.78 -3.21,8.27 -3.21,13.47 0,5.2 1.07,9.76 3.21,13.68 2.14,3.92 4.97,6.91 8.48,8.96 3.51,2.05 7.23,3.08 11.15,3.08 4.01,0 7.75,-1 11.22,-3.01 3.47,-2.01 6.27,-4.95 8.41,-8.82 2.14,-3.88 3.21,-8.41 3.21,-13.61l0 -0z"/>
  <path id="_6" class="fil0" d="M592.26 64.98c2.64,-3.47 6.25,-6.38 10.81,-8.75 4.56,-2.37 9.71,-3.56 15.45,-3.56 6.57,0 12.56,1.62 17.99,4.85 5.43,3.24 9.69,7.77 12.79,13.61 3.1,5.83 4.65,12.54 4.65,20.1 0,7.57 -1.55,14.34 -4.65,20.31 -3.1,5.97 -7.36,10.62 -12.79,13.95 -5.42,3.33 -11.42,4.99 -17.99,4.99 -5.75,0 -10.85,-1.16 -15.32,-3.49 -4.47,-2.32 -8.11,-5.22 -10.94,-8.68l0 46.78 -15.59 0 0 -111.2 15.59 0 0 11.08 0 -0zm45.82 26.26c0,-5.2 -1.07,-9.69 -3.21,-13.47 -2.14,-3.79 -4.97,-6.66 -8.48,-8.62 -3.51,-1.96 -7.27,-2.94 -11.28,-2.94 -3.92,0 -7.64,1 -11.15,3.01 -3.51,2.01 -6.34,4.92 -8.48,8.75 -2.14,3.83 -3.21,8.34 -3.21,13.54 0,5.2 1.07,9.73 3.21,13.61 2.14,3.88 4.97,6.82 8.48,8.82 3.51,2.01 7.23,3.01 11.15,3.01 4.01,0 7.77,-1.03 11.28,-3.08 3.51,-2.05 6.34,-5.04 8.48,-8.96 2.14,-3.92 3.21,-8.48 3.21,-13.68l0 0z"/>
  <path class="fil1" d="M63.44 0l44.74 0c35.03,0 63.44,28.41 63.44,63.44l-0 44.74c0,35.03 -28.41,63.43 -63.43,63.43l-44.74 0c-35.03,-0 -63.43,-28.41 -63.43,-63.44l-0 -44.74c0,-35.03 28.41,-63.44 63.44,-63.44z"/>
  <path class="fil0" d="M664.58 32.65c2.31,0 4.52,0.58 6.63,1.73 2.12,1.15 3.79,2.8 5,4.95 1.21,2.15 1.81,4.4 1.81,6.76 0,2.34 -0.59,4.57 -1.78,6.7 -1.19,2.12 -2.84,3.77 -4.97,4.97 -2.13,1.19 -4.35,1.78 -6.7,1.78 -2.34,0 -4.57,-0.59 -6.7,-1.78 -2.12,-1.19 -3.77,-2.84 -4.97,-4.97 -1.19,-2.13 -1.78,-4.35 -1.78,-6.7 0,-2.35 0.6,-4.61 1.81,-6.76 1.21,-2.15 2.87,-3.8 5,-4.95 2.11,-1.16 4.32,-1.73 6.63,-1.73l0 0zm0.01 2.66c-1.85,0 -3.62,0.46 -5.32,1.38 -1.69,0.92 -3.03,2.25 -4.01,3.98 -0.97,1.72 -1.47,3.54 -1.47,5.43 0,1.88 0.48,3.68 1.43,5.38 0.95,1.71 2.28,3.04 3.99,4 1.71,0.96 3.5,1.44 5.37,1.44 1.88,0 3.67,-0.48 5.37,-1.44 1.71,-0.96 3.04,-2.29 4,-4 0.96,-1.7 1.44,-3.5 1.44,-5.38 0,-1.89 -0.49,-3.7 -1.47,-5.43 -0.98,-1.73 -2.31,-3.05 -4.01,-3.98 -1.71,-0.92 -3.48,-1.38 -5.32,-1.38l0 0zm-6.09 17.97l0 -14.23 2.89 0c2.71,0 4.23,0.01 4.55,0.03 0.96,0.08 1.7,0.27 2.23,0.57 0.53,0.29 0.97,0.75 1.33,1.37 0.35,0.61 0.53,1.29 0.53,2.04 0,1.03 -0.33,1.9 -1.01,2.64 -0.67,0.73 -1.61,1.18 -2.82,1.36 0.43,0.16 0.77,0.34 1,0.53 0.23,0.19 0.56,0.56 0.96,1.09 0.11,0.14 0.46,0.72 1.05,1.74l1.67 2.87 -3.59 0 -1.18 -2.32c-0.8,-1.55 -1.45,-2.53 -1.98,-2.93 -0.53,-0.4 -1.19,-0.61 -1.99,-0.61l-0.75 0 0 5.86 -2.91 0 0 -0zm2.91 -8.12l1.17 0c1.66,0 2.7,-0.06 3.1,-0.19 0.4,-0.13 0.72,-0.35 0.95,-0.67 0.24,-0.32 0.35,-0.68 0.35,-1.08 0,-0.39 -0.11,-0.74 -0.34,-1.05 -0.23,-0.31 -0.55,-0.53 -0.97,-0.66 -0.42,-0.13 -1.45,-0.2 -3.09,-0.2l-1.17 0 0 3.85 -0 0z"/>
  <path class="fil2" d="M143.54 131.12c-41.79,-25.17 17.79,-75.9 -50.68,-90.62 49.53,29.14 -14.42,72.44 50.68,90.62z"/>
  <path class="fil2" d="M57.63 82.24c3.88,-16.92 6.43,-33.12 -29.55,-40.1 12.01,6.69 16.18,14.22 16.9,21.98 0.01,0.09 0.12,0.2 0.16,0.28 3.26,7.87 6.3,11.38 12.5,17.84z"/>
  <path class="fil2" d="M71.34 130.85c-17.56,-10.94 -17.92,-21.85 -16.7,-37.4 -3.32,-1.77 -11.73,-7.99 -13.9,-17.36 -1.04,10.7 -12.37,42.35 30.6,54.76l0 0z"/>
  <path class="fil3" d="M107.85 100.28l-5.54 -17.23c0,0 -33.75,17.83 -57.35,-18.86 11.58,27.96 42.47,43.08 62.89,36.09z"/>
 </g>
</svg>
